<svg xmlns="http://www.w3.org/2000/svg" viewBox="0 0 797.35 326.43"><defs><style>.cls-1{fill:#bd1818;stroke:#000;stroke-miterlimit:10;stroke-width:12.46px;}.cls-2{fill:#fff;}</style></defs><g id="Layer_1" data-name="Layer 1"><path d="M423,395.55a24,24,0,0,1,.45,36.31Q414.62,440,399.35,440h-47.9c-5.46,0-9.89-4-9.89-8.9V358.88c0-4.91,4.43-8.9,9.89-8.9h47.9q15.27,0,24.13,8.39a25,25,0,0,1-.45,37.18Zm-21.43,28.8q7.74,0,12.34-3.26c2.7-1.91,4-4.29,4-7.13s-1.38-5.22-4.15-7.14q-4.49-3.37-12.23-3.38H372.47c-4.8,0-8.69-3.5-8.69-7.82h0c0-4.32,3.89-7.83,8.69-7.83H401.6q7.74,0,12.23-3.5a9.17,9.17,0,0,0,.11-15.28q-4.6-3.37-12.34-3.38h-46v58.72Z" transform="translate(-30.21 -268.78)"/><path d="M475.78,440q-16.35,0-26.27-14.4-9-13.14-8.95-31.54,0-18.15,8.56-30.29Q458.86,350,475.78,350h19.56q16.92,0,26.56,13.77,8.65,12.14,8.66,30.29,0,18.4-8.95,31.54Q511.68,440,495.34,440Zm0-74.35q-10.5,0-17,8.88-5.73,7.89-6.12,19.53-.3,12.27,5.44,20.78,6.42,9.51,17.71,9.51h19.56q11.28,0,17.71-9.51,5.73-8.5,5.35-20.78-.3-11.64-6.13-19.53-6.42-8.88-16.93-8.88Z" transform="translate(-30.21 -268.78)"/><path d="M539.56,431.12V358.9c0-4.92,4.43-8.9,9.89-8.9h37.69q20.26,0,32,13.77,10.43,12.15,10.43,30.3,0,18.4-10.78,31.55-12,14.4-31.64,14.4H549.45C544,440,539.56,436,539.56,431.12Zm14.65-65.47v58.72h32.93q13.59,0,21.33-9.52,6.91-8.5,6.44-20.78-.35-11.64-7.38-19.53-7.74-8.9-20.39-8.89Z" transform="translate(-30.21 -268.78)"/><path d="M423,503.57a24,24,0,0,1,.45,36.31Q414.62,548,399.35,548H350.46a8.89,8.89,0,0,1-8.9-8.9V466.9a8.89,8.89,0,0,1,8.9-8.9h48.89q15.27,0,24.13,8.39a25,25,0,0,1-.45,37.18Zm-21.43,28.8q7.74,0,12.34-3.26c2.7-1.92,4-4.3,4-7.14s-1.38-5.21-4.15-7.13q-4.49-3.39-12.23-3.38h-30a7.83,7.83,0,0,1-7.82-7.83h0a7.82,7.82,0,0,1,7.82-7.82h30q7.74,0,12.23-3.51a9.17,9.17,0,0,0,.11-15.27q-4.6-3.39-12.34-3.38h-46v58.72Z" transform="translate(-30.21 -268.78)"/><path d="M475.78,548q-16.35,0-26.27-14.4-9-13.14-8.95-31.55,0-18.15,8.56-30.3Q458.86,458,475.78,458h19.56q16.92,0,26.56,13.77,8.65,12.15,8.66,30.3,0,18.41-8.95,31.55Q511.68,548,495.34,548Zm0-74.37q-10.5,0-17,8.89-5.73,7.89-6.12,19.53-.3,12.27,5.44,20.78,6.42,9.52,17.71,9.52h19.56q11.28,0,17.71-9.52,5.73-8.51,5.35-20.78-.3-11.64-6.13-19.53-6.42-8.88-16.93-8.89Z" transform="translate(-30.21 -268.78)"/><path d="M574.78,548q-16.35,0-26.27-14.39-9-13.15-9-31.55,0-18.15,8.56-30.3Q557.86,458,574.78,458h19.56q16.92,0,26.56,13.77,8.65,12.15,8.66,30.3,0,18.4-8.95,31.55Q610.68,548,594.34,548Zm0-74.36q-10.5,0-17,8.89Q552,490.39,551.63,502q-.3,12.27,5.44,20.78,6.42,9.51,17.71,9.51h19.56q11.28,0,17.71-9.51,5.73-8.52,5.35-20.78-.3-11.66-6.13-19.53-6.42-8.89-16.93-8.89Z" transform="translate(-30.21 -268.78)"/><path d="M701.23,548H650.12c-5.4,0-9.78-3.5-9.78-7.82h0c0-4.32,4.38-7.82,9.78-7.82h51.11q6.88,0,11-3.89a11.59,11.59,0,0,0,3.77-8.63,11,11,0,0,0-3.66-8.39q-4.11-3.76-11.11-3.76H663.45q-11.78,0-18.67-7.76a26.59,26.59,0,0,1,0-34.18q6.88-7.75,18.67-7.76H714c5.4,0,9.78,3.5,9.78,7.82h0c0,4.33-4.38,7.83-9.78,7.83H663.45q-6.35,0-8.83,5.59a8,8,0,0,0-.69,2.76,9.07,9.07,0,0,0,2.3,7.17,9.34,9.34,0,0,0,7.22,2.88h37.78q12.76,0,20.44,8.77a28.76,28.76,0,0,1,6.89,19.4q0,11.4-6.78,19.16Q714.22,548,701.23,548Z" transform="translate(-30.21 -268.78)"/><path d="M790.75,473.65v66.53a7.82,7.82,0,0,1-7.82,7.82h-.61a7.82,7.82,0,0,1-7.82-7.82V473.65H745.38a7.83,7.83,0,0,1-7.82-7.83h0a7.82,7.82,0,0,1,7.82-7.82h74.36a7.82,7.82,0,0,1,7.82,7.82h0a7.83,7.83,0,0,1-7.82,7.83Z" transform="translate(-30.21 -268.78)"/><path d="M675,440h0a7.5,7.5,0,0,1-7.69-7.31V410L631,361.53c-3.63-4.83,0-11.55,6.26-11.55h.93a7.79,7.79,0,0,1,6.26,3.07l31.07,41.39,29-41.21a7.81,7.81,0,0,1,6.39-3.25h1c6.2,0,9.85,6.62,6.32,11.46L682.73,410.2v22.49A7.5,7.5,0,0,1,675,440Z" transform="translate(-30.21 -268.78)"/><text x="-30.21" y="-268.78"/><path class="cls-1" d="M298.42,442.8c-4.05-14.25-10.05-33.66-22.77-47.43-1.59-1.95-5.41-7.78-5.16-14.49.73-20,5.87-29.16,5.74-54.41a46.71,46.71,0,0,0-1.57-11.56C268.87,292,247.58,275,222.19,275H119.81c-25.39,0-46.68,17-52.47,39.9a46.71,46.71,0,0,0-1.57,11.56c-.13,25.25,5,34.42,5.74,54.41.25,6.71-3.57,12.54-5.16,14.49-12.72,13.77-18.72,33.18-22.77,47.43-4.89,17.23-15.91,56.05,6,92.43,11.56,19.24,27.26,29.48,35.72,34.66,22,13.52,54.24,19.28,85.74,19.09,31.5.19,63.7-5.57,85.74-19.09,8.46-5.18,24.16-15.42,35.72-34.66C314.33,498.85,303.31,460,298.42,442.8Zm-75.23-75c-.08.38-.56,2.54-1.28,5.87l-.9-.17c-21.36-3.93-41.28-5.65-50-5.77-8.73.12-28.65,1.84-50,5.77l-.9.17c-.72-3.33-1.2-5.49-1.28-5.87-2.89-12.94-9.2-31.75.81-38.22,1.33-.86,3.14-.9,4.41-1.11H218c1.27.21,3.08.25,4.41,1.11C232.39,336,226.08,354.83,223.19,367.77Z" transform="translate(-30.21 -268.78)"/><ellipse cx="141.21" cy="226.11" rx="61.67" ry="57.55"/><path class="cls-2" d="M205.37,496.94a15.7,15.7,0,0,0,.18-19.56,12.21,12.21,0,0,0-9.93-4.42H178c-2,0-3.66,2.1-3.66,4.69v38c0,2.59,1.64,4.69,3.66,4.69h17.66a12.37,12.37,0,0,0,9.93-4.28,15.06,15.06,0,0,0-.18-19.11Zm-13.82,4.44h4.89a6.66,6.66,0,0,1,4.81,1.7,4.81,4.81,0,0,1,.05,7.19,7,7,0,0,1-4.86,1.64H180.06V481.38h16.47a7,7,0,0,1,5,1.77,5.4,5.4,0,0,1,1.65,4,5.33,5.33,0,0,1-1.69,4,6.78,6.78,0,0,1-5,1.83h-4.9a3.48,3.48,0,0,0-3.21,2.88C187.72,498.73,189.4,501.38,191.55,501.38Z" transform="translate(-30.21 -268.78)"/><path class="cls-2" d="M164.87,473H147.22a12.21,12.21,0,0,0-9.93,4.42,15.7,15.7,0,0,0,.18,19.56,15.06,15.06,0,0,0-.18,19.11,12.37,12.37,0,0,0,9.93,4.28h17.65c2,0,3.67-2.1,3.67-4.69v-38C168.54,475.06,166.9,473,164.87,473Zm-2.09,39H146.4a7,7,0,0,1-4.86-1.64,4.81,4.81,0,0,1,.05-7.19,6.65,6.65,0,0,1,4.81-1.7h4.89c2.15,0,3.83-2.65,3.13-5.54a3.49,3.49,0,0,0-3.21-2.88h-4.9a6.78,6.78,0,0,1-5-1.83,5.33,5.33,0,0,1-1.69-4,5.4,5.4,0,0,1,1.65-4,7,7,0,0,1,5-1.77h16.47Z" transform="translate(-30.21 -268.78)"/></g></svg>