<svg id="Layer_1" data-name="Layer 1" xmlns="http://www.w3.org/2000/svg" viewBox="0 0 863 862.07"><defs><style>.cls-1{fill:#fff;}</style></defs><path class="cls-1" d="M533.31,0c-6.49,51.17-50,90.77-102.82,90.77S334.13,51.19,327.67,0A439.87,439.87,0,0,0,199.34,53.05,103.83,103.83,0,0,1,53.17,199.27,440.59,440.59,0,0,0,0,327.94,103.84,103.84,0,0,1,91,431,103.83,103.83,0,0,1,0,534.12,440.48,440.48,0,0,0,53.17,662.79,103.86,103.86,0,0,1,199.34,809a439.89,439.89,0,0,0,128.33,53.06,103.61,103.61,0,0,1,205.64,0A439.83,439.83,0,0,0,661.65,809,103.83,103.83,0,0,1,807.82,662.79a440.86,440.86,0,0,0,51-119.55A103.92,103.92,0,0,1,863,337.08a441.63,441.63,0,0,0-49.71-128.5,103.55,103.55,0,0,1-156.46-89.42,103.62,103.62,0,0,1,17.59-57.91A440.6,440.6,0,0,0,533.31,0ZM709.42,431c0,154.23-124.88,279.26-278.93,279.26S151.56,585.26,151.56,431,276.44,151.77,430.49,151.77,709.42,276.8,709.42,431Z"/></svg>