<svg id="Layer_1" data-name="Layer 1" xmlns="http://www.w3.org/2000/svg" viewBox="0 0 863 863"><defs><style>.cls-1{fill:#fff;}</style></defs><path class="cls-1" d="M786.29,0h-537C206.94,0,172.6,42.93,172.6,95.89V719.17c0,13.24-8.59,24-19.18,24h0c-10.59,0-19.18-10.73-19.18-24V215.75H95.89C42.93,215.75,0,269.41,0,335.61V743.14C0,809.34,42.93,863,95.89,863h690.4c42.37,0,76.71-42.93,76.71-95.89V95.89C863,42.93,828.66,0,786.29,0ZM230.13,71.92H805.47V263.69H230.13Zm0,239.72H805.47v71.92H230.13ZM498.62,503.42V431.5H805.47v71.92Zm306.85,47.94v71.92H498.62V551.36ZM230.13,743.14V431.5H460.27V743.14Zm268.49,0V671.22H805.47v71.92Z"/></svg>