<svg id="Layer_1" data-name="Layer 1" xmlns="http://www.w3.org/2000/svg" viewBox="0 0 863 863"><defs><style>.cls-1{fill:#fff;}</style></defs><path class="cls-1" d="M862,296.7,816.71,59.53a57.28,57.28,0,0,0-2.94-15.43l-.14-.71C808.06,14.22,781.57-4.74,754.46,1a47.85,47.85,0,0,0-18.74,8.61.75.75,0,0,0-.13.06L528,138.27c-23.9,14.8-32,47.71-18,73.49s44.63,34.69,68.54,19.89l77.83-48.2L423.11,696.36,211.78,321c-14.28-25.37-45-33.49-68.59-18.15l-.26.17c-12.51,8.13-20.34,21.24-23,35.52L2.42,731.17c-8.47,28.31,6,58.64,32.36,67.75s54.56-6.46,63-34.77l85.51-285.71L382.86,832.9a51.67,51.67,0,0,0,22.74,24.62c24.86,13.06,54.87,2,67-24.74L747,229.41l16.83,88.2c5.56,29.17,32.05,48.13,59.16,42.36S867.53,325.87,862,296.7Z" transform="translate(0 0)"/></svg>