<svg id="Layer_1" data-name="Layer 1" xmlns="http://www.w3.org/2000/svg" viewBox="0 0 863 863"><defs><style>.cls-1{fill:#fff;}</style></defs><path class="cls-1" d="M743.05,332.21a70.21,70.21,0,0,0,99.29-99.3l-51-51,48.84-48.85A77.94,77.94,0,0,0,730,22.83L681.1,71.67,630.81,21.38a70.21,70.21,0,1,0-99.3,99.29L449.13,38.29a70.21,70.21,0,0,0-99.29,0h0a70.21,70.21,0,0,0,0,99.29L482.52,270.26,270.26,482.52,137.58,349.84a70.21,70.21,0,0,0-99.29,99.29l82.38,82.38a70.21,70.21,0,0,0-99.29,99.3L71.67,681.1,22.83,730A77.94,77.94,0,0,0,133.05,840.17l48.85-48.84,51,51a70.21,70.21,0,0,0,99.3-99.29l-51-51h0L413.87,824.71a70.21,70.21,0,1,0,99.29-99.29L380.49,592.74,592.74,380.48,725.42,513.16a70.21,70.21,0,1,0,99.29-99.29L692,281.19h0Z" transform="translate(0 0)"/></svg>